<svg xmlns="http://www.w3.org/2000/svg" viewBox="0 0 41 41"><defs/><defs><clipPath id="a"><path fill="#fff" d="M20.42 0a20.42 20.42 0 110 40.84 20.42 20.42 0 010-40.84z"/></clipPath></defs><path fill="none" d="M20.42 0a20.42 20.42 0 110 40.84 20.42 20.42 0 010-40.84z"/><path fill="none" stroke="#2c87ce" stroke-linecap="round" stroke-linejoin="round" stroke-miterlimit="20" stroke-width="4" d="M20.42 0a20.42 20.42 0 110 40.84 20.42 20.42 0 010-40.84z" clip-path="url(&quot;#a&quot;)"/><g><path fill="#2c87ce" d="M20.48 10C14.84 10 12 14.1 12 17.53c0 2.08.77 3.92 2.43 4.61.27.11.52 0 .6-.3l.24-.97c.08-.3.05-.4-.17-.67a3.51 3.51 0 01-.79-2.37 5.67 5.67 0 015.85-5.77c3.19 0 4.94 1.98 4.94 4.62 0 3.48-1.52 6.41-3.77 6.41-1.24 0-2.17-1.04-1.87-2.32.36-1.53 1.05-3.18 1.05-4.28 0-.99-.52-1.81-1.6-1.81-1.27 0-2.3 1.33-2.3 3.12 0 1.14.39 1.9.39 1.9l-1.53 6.58c-.45 1.95-.07 4.35-.04 4.59.02.14.2.17.29.07.11-.16 1.63-2.06 2.14-3.95l.83-3.32c.42.8 1.62 1.5 2.9 1.5 3.82 0 6.4-3.53 6.4-8.26 0-3.58-2.97-6.91-7.5-6.91"/></g></svg>