<svg xmlns="http://www.w3.org/2000/svg" viewBox="0 0 41 41"><defs/><defs><clipPath id="a"><path fill="#fff" d="M20.4 0a20.4 20.4 0 110 40.8 20.4 20.4 0 010-40.8z"/></clipPath></defs><path fill="#fff" d="M20.4 0a20.4 20.4 0 110 40.8 20.4 20.4 0 010-40.8z"/><path fill="none" stroke="#2c87ce" stroke-linecap="round" stroke-linejoin="round" stroke-miterlimit="20" stroke-width="4" d="M20.4 0a20.4 20.4 0 110 40.8 20.4 20.4 0 010-40.8z" clip-path="url(&quot;#a&quot;)"/><g><path fill="#2c87ce" d="M22 15h2v-3h-2.4c-3 0-3.6 1.7-3.6 3.5V17h-2v3h2v8h3v-8h2.5l.4-3H21v-1c0-.5.4-1 1-1z"/></g></svg>