<svg xmlns="http://www.w3.org/2000/svg" viewBox="0 0 41 41"><defs/><defs><clipPath id="a"><path fill="#fff" d="M20.42 0a20.42 20.42 0 110 40.84 20.42 20.42 0 010-40.84z"/></clipPath></defs><path fill="#fff" d="M20.42 0a20.42 20.42 0 110 40.84 20.42 20.42 0 010-40.84z"/><path fill="none" stroke="#2c87ce" stroke-linecap="round" stroke-linejoin="round" stroke-miterlimit="20" stroke-width="4" d="M20.42 0a20.42 20.42 0 110 40.84 20.42 20.42 0 010-40.84z" clip-path="url(&quot;#a&quot;)"/><g><path fill="#2c87ce" d="M28.56 15.56c-.27.15-1.08.45-1.83.52a3.5 3.5 0 001.38-1.8c-.47.3-1.54.74-2.06.74a3.3 3.3 0 00-5.6 3.02 9.52 9.52 0 01-7-3.43 3.3 3.3 0 001 4.36c-.38.03-1.1-.04-1.44-.37-.02 1.15.53 2.67 2.55 3.22-.4.21-1.08.15-1.38.1.1.98 1.47 2.25 2.95 2.25a5.4 5.4 0 01-4.57 1.37A9.91 9.91 0 0017.72 27a9.17 9.17 0 009.24-9.64v-.11a5.68 5.68 0 001.6-1.69z"/></g></svg>